<?xml version="1.0" encoding="UTF-8"?>
<svg xmlns="http://www.w3.org/2000/svg" xmlns:xlink="http://www.w3.org/1999/xlink" width="36px" height="32px" viewBox="0 0 36 32" version="1.1">
<g id="surface1">
<path style=" stroke:none;fill-rule:nonzero;" d="M 8.144531 2.660156 C 12.132812 5.671875 16.425781 11.785156 18 15.0625 C 19.574219 11.785156 23.867188 5.671875 27.855469 2.660156 C 30.734375 0.484375 35.398438 -1.199219 35.398438 4.15625 C 35.398438 5.226562 34.789062 13.140625 34.433594 14.425781 C 33.191406 18.890625 28.664062 20.03125 24.636719 19.339844 C 31.675781 20.546875 33.464844 24.539062 29.601562 28.53125 C 22.257812 36.113281 19.046875 26.628906 18.222656 24.199219 C 18.070312 23.753906 18 23.542969 18 23.722656 C 18 23.542969 17.929688 23.753906 17.777344 24.199219 C 16.953125 26.628906 13.742188 36.113281 6.398438 28.53125 C 2.53125 24.539062 4.324219 20.546875 11.363281 19.339844 C 7.335938 20.03125 2.808594 18.890625 1.566406 14.425781 C 1.210938 13.140625 0.601562 5.226562 0.601562 4.15625 C 0.601562 -1.199219 5.265625 0.484375 8.144531 2.660156 Z M 8.144531 2.660156 "/>
</g>
</svg>
